<svg width="10" height="10" viewBox="0 0 10 10" fill="none" xmlns="http://www.w3.org/2000/svg">
<g clip-path="url(#clip0_0_887)">
<path fill-rule="evenodd" clip-rule="evenodd" d="M9.7348 4.32172C10.0884 4.70479 10.0884 5.29522 9.7348 5.67829L6.0425 9.67828C5.66789 10.0841 5.03523 10.1094 4.62941 9.73481C4.22359 9.3602 4.19829 8.72754 4.57289 8.32172L6.71601 6H1C0.447715 6 -2.41411e-08 5.55229 0 5C2.41411e-08 4.44772 0.447715 4 1 4H6.71601L4.57289 1.67829C4.19829 1.27246 4.22359 0.639805 4.62941 0.265202C5.03523 -0.109402 5.66789 -0.0840959 6.0425 0.321725L9.7348 4.32172Z" fill="white"/>
</g>
<defs>
<clipPath id="clip0_0_887">
<rect width="10" height="10" fill="white" transform="translate(10) rotate(90)"/>
</clipPath>
</defs>
</svg>
