<svg width="20" height="20" viewBox="0 0 20 20" fill="none" xmlns="http://www.w3.org/2000/svg">
<g clip-path="url(#clip0_0_609)">
<path d="M6.24992 0.833252H2.83325C1.72868 0.833252 0.833252 1.72868 0.833252 2.83325V13.8333C0.833252 14.9378 1.72868 15.8333 2.83325 15.8333H13.8333C14.9378 15.8333 15.8333 14.9378 15.8333 13.8333V2.83325C15.8333 1.72868 14.9378 0.833252 13.8333 0.833252H6.24992ZM14.1666 2.49992V14.1666H2.49992V2.49992H14.1666ZM17.4999 17.4999H4.16659V19.1666H17.1666C18.2712 19.1666 19.1666 18.2712 19.1666 17.1666V4.16659H17.4999V17.4999ZM12.4999 4.16659H4.16659V5.83325H12.4999V4.16659ZM4.16659 7.49992H12.4999V9.16659H4.16659V7.49992ZM9.99992 10.8333H4.16659V12.4999H9.99992V10.8333Z" fill="#40B661"/>
</g>
<defs>
<clipPath id="clip0_0_609">
<rect width="20" height="20" fill="white"/>
</clipPath>
</defs>
</svg>
