<svg width="30" height="30" viewBox="0 0 30 30" fill="none" xmlns="http://www.w3.org/2000/svg">
<path d="M4.60498 22.9483V7.7735C4.60513 7.22134 5.05279 6.7735 5.60498 6.7735C6.15717 6.7735 6.60483 7.22134 6.60498 7.7735V22.9493C6.60488 23.2924 6.67201 23.6323 6.80322 23.9493C6.93452 24.2664 7.12791 24.5542 7.37061 24.7969C7.61328 25.0396 7.90117 25.2321 8.21826 25.3633C8.53535 25.4946 8.87507 25.5627 9.21826 25.5626H20.7808C21.4736 25.5626 22.1385 25.2869 22.6284 24.7969C23.0571 24.3682 23.322 23.8061 23.3813 23.2081L23.394 22.9503V7.77252C23.394 7.22024 23.8418 6.77252 24.394 6.77252C24.9462 6.77269 25.394 7.22034 25.394 7.77252V22.9503L25.3882 23.1788C25.3316 24.3188 24.8534 25.401 24.0425 26.212C23.1775 27.0768 22.0039 27.5626 20.7808 27.5626H9.21826C8.61255 27.5627 8.01229 27.4437 7.45264 27.212C6.89286 26.9802 6.38399 26.6404 5.95557 26.212C5.52707 25.7835 5.18737 25.2738 4.95557 24.7139C4.7528 24.224 4.63663 23.7033 4.61084 23.1749L4.60498 22.9483Z" fill="white"/>
<path d="M18.4448 11.6563C18.6954 11.1642 19.2975 10.9685 19.7896 11.2188C20.2817 11.4693 20.4776 12.0714 20.2271 12.5635L19.7788 13.4453C19.3971 14.2111 18.8096 14.8554 18.0825 15.3066C17.4434 15.7032 16.7183 15.9372 15.9712 15.9893L15.6499 16H14.3501C13.4905 16.0001 12.6479 15.7598 11.9175 15.3066C11.1904 14.8554 10.6029 14.2111 10.2212 13.4453L9.77295 12.5635C9.52248 12.0715 9.7176 11.4694 10.2095 11.2188C10.7016 10.9681 11.3046 11.1641 11.5552 11.6563L12.0034 12.5371L12.0083 12.5469L12.0952 12.708C12.3095 13.0739 12.6103 13.3829 12.9722 13.6074C13.3859 13.8641 13.8633 14.0001 14.3501 14H15.6499L15.8325 13.9941C16.2555 13.9646 16.666 13.832 17.0278 13.6074C17.4415 13.3507 17.7756 12.9831 17.9917 12.5469L17.9966 12.5371L18.4448 11.6563ZM19.4526 2.43751C20.0183 2.43623 20.5647 2.63036 21.0005 2.9834L21.1802 3.14551L21.1851 3.14942L25.1021 7.06641C25.388 7.35237 25.4735 7.78262 25.3188 8.15626C25.1641 8.52992 24.7995 8.77342 24.395 8.77344L5.60498 8.7754C5.20069 8.7754 4.83604 8.53164 4.68115 8.15821C4.52632 7.78461 4.61208 7.35442 4.89795 7.06837L8.81787 3.14551L8.99854 2.9834C9.43468 2.63017 9.98133 2.43691 10.5474 2.43848L19.4526 2.43751ZM10.4546 4.44532C10.3701 4.46175 10.2909 4.50204 10.228 4.56251L10.229 4.56348L8.01709 6.77442L21.98 6.77344L19.77 4.56348C19.6859 4.48275 19.5733 4.43709 19.4565 4.43751H10.5425L10.4546 4.44532Z" fill="white"/>
</svg>
