<svg width="30" height="30" viewBox="0 0 30 30" fill="none" xmlns="http://www.w3.org/2000/svg">
<path d="M9 6C8.60218 6 8.22064 6.15804 7.93934 6.43934C7.65804 6.72064 7.5 7.10218 7.5 7.5V10.5C7.5 10.8978 7.65804 11.2794 7.93934 11.5607C8.22064 11.842 8.60218 12 9 12H18C18.3978 12 18.7794 11.842 19.0607 11.5607C19.342 11.2794 19.5 10.8978 19.5 10.5V7.5C19.5 7.10218 19.342 6.72064 19.0607 6.43934C18.7794 6.15804 18.3978 6 18 6H9ZM9 7.5H18V10.5H9V7.5ZM12 15C12 14.6022 12.158 14.2206 12.4393 13.9393C12.7206 13.658 13.1022 13.5 13.5 13.5C13.8978 13.5 14.2794 13.658 14.5607 13.9393C14.842 14.2206 15 14.6022 15 15C15 15.3978 14.842 15.7794 14.5607 16.0607C14.2794 16.342 13.8978 16.5 13.5 16.5C13.1022 16.5 12.7206 16.342 12.4393 16.0607C12.158 15.7794 12 15.3978 12 15ZM13.5 17.625C13.1022 17.625 12.7206 17.783 12.4393 18.0643C12.158 18.3456 12 18.7272 12 19.125C12 19.5228 12.158 19.9044 12.4393 20.1857C12.7206 20.467 13.1022 20.625 13.5 20.625C13.8978 20.625 14.2794 20.467 14.5607 20.1857C14.842 19.9044 15 19.5228 15 19.125C15 18.7272 14.842 18.3456 14.5607 18.0643C14.2794 17.783 13.8978 17.625 13.5 17.625ZM16.5 15C16.5 14.6022 16.658 14.2206 16.9393 13.9393C17.2206 13.658 17.6022 13.5 18 13.5C18.3978 13.5 18.7794 13.658 19.0607 13.9393C19.342 14.2206 19.5 14.6022 19.5 15C19.5 15.3978 19.342 15.7794 19.0607 16.0607C18.7794 16.342 18.3978 16.5 18 16.5C17.6022 16.5 17.2206 16.342 16.9393 16.0607C16.658 15.7794 16.5 15.3978 16.5 15ZM18 17.625C17.6022 17.625 17.2206 17.783 16.9393 18.0643C16.658 18.3456 16.5 18.7272 16.5 19.125C16.5 19.5228 16.658 19.9044 16.9393 20.1857C17.2206 20.467 17.6022 20.625 18 20.625C18.3978 20.625 18.7794 20.467 19.0607 20.1857C19.342 19.9044 19.5 19.5228 19.5 19.125C19.5 18.7272 19.342 18.3456 19.0607 18.0643C18.7794 17.783 18.3978 17.625 18 17.625ZM7.5 15C7.5 14.6022 7.65804 14.2206 7.93934 13.9393C8.22064 13.658 8.60218 13.5 9 13.5C9.39782 13.5 9.77936 13.658 10.0607 13.9393C10.342 14.2206 10.5 14.6022 10.5 15C10.5 15.3978 10.342 15.7794 10.0607 16.0607C9.77936 16.342 9.39782 16.5 9 16.5C8.60218 16.5 8.22064 16.342 7.93934 16.0607C7.65804 15.7794 7.5 15.3978 7.5 15ZM9 17.625C8.60218 17.625 8.22064 17.783 7.93934 18.0643C7.65804 18.3456 7.5 18.7272 7.5 19.125C7.5 19.5228 7.65804 19.9044 7.93934 20.1857C8.22064 20.467 8.60218 20.625 9 20.625C9.39782 20.625 9.77936 20.467 10.0607 20.1857C10.342 19.9044 10.5 19.5228 10.5 19.125C10.5 18.7272 10.342 18.3456 10.0607 18.0643C9.77936 17.783 9.39782 17.625 9 17.625ZM8.25 3C7.25544 3 6.30161 3.39509 5.59835 4.09835C4.89509 4.80161 4.5 5.75544 4.5 6.75V20.25C4.5 21.2446 4.89509 22.1984 5.59835 22.9016C6.30161 23.6049 7.25544 24 8.25 24H18.75C19.7446 24 20.6984 23.6049 21.4016 22.9016C22.1049 22.1984 22.5 21.2446 22.5 20.25V6.75C22.5 5.75544 22.1049 4.80161 21.4016 4.09835C20.6984 3.39509 19.7446 3 18.75 3H8.25ZM6 6.75C6 6.15326 6.23705 5.58097 6.65901 5.15901C7.08097 4.73705 7.65326 4.5 8.25 4.5H18.75C19.3467 4.5 19.919 4.73705 20.341 5.15901C20.7629 5.58097 21 6.15326 21 6.75V20.25C21 20.8467 20.7629 21.419 20.341 21.841C19.919 22.2629 19.3467 22.5 18.75 22.5H8.25C7.65326 22.5 7.08097 22.2629 6.65901 21.841C6.23705 21.419 6 20.8467 6 20.25V6.75ZM11.25 27C10.6678 27 10.0937 26.8645 9.57295 26.6041C9.05224 26.3438 8.5993 25.9657 8.25 25.5H18.75C20.1424 25.5 21.4777 24.9469 22.4623 23.9623C23.4469 22.9777 24 21.6424 24 20.25V6.75C24.9105 7.434 25.5 8.523 25.5 9.75V20.25C25.5 22.0402 24.7888 23.7571 23.523 25.023C22.2571 26.2888 20.5402 27 18.75 27H11.25Z" fill="white"/>
</svg>
