<svg width="16" height="16" viewBox="0 0 16 16" fill="none" xmlns="http://www.w3.org/2000/svg">
<g clip-path="url(#clip0_0_1034)">
<circle cx="11.5" cy="10.5" r="3.5" fill="#DDE6E3"/>
<path d="M3.66992 0.666666V2H3.00326C2.26326 2 1.66992 2.59333 1.66992 3.33333V12.6667C1.66992 13.0203 1.8104 13.3594 2.06045 13.6095C2.31049 13.8595 2.64963 14 3.00326 14H8.06992C8.90992 14.8267 10.0633 15.3333 11.3366 15.3333C13.9166 15.3333 16.0033 13.2467 16.0033 10.6667C16.0033 9.39333 15.4966 8.24 14.6699 7.4V3.33333C14.6699 2.97971 14.5294 2.64057 14.2794 2.39052C14.0293 2.14048 13.6902 2 13.3366 2H12.6699V0.666666H11.3366V2H5.00326V0.666666M3.00326 3.33333H13.3366V4.66667H3.00326M3.00326 6H13.3366V6.44667C12.7299 6.16 12.0499 6 11.3366 6C8.75659 6 6.66992 8.08667 6.66992 10.6667C6.66992 11.38 6.82992 12.06 7.11659 12.6667H3.00326M11.3366 7.43333C13.1233 7.43333 14.5699 8.88 14.5699 10.6667C14.5699 12.4533 13.1233 13.9 11.3366 13.9C9.54992 13.9 8.10326 12.4533 8.10326 10.6667C8.10326 8.88 9.54992 7.43333 11.3366 7.43333ZM10.6699 8.66667V11.1267L12.7966 12.3533L13.2966 11.4867L11.6699 10.5467V8.66667H10.6699Z" fill="#40B661"/>
</g>
<defs>
<clipPath id="clip0_0_1034">
<rect width="16" height="16" fill="white"/>
</clipPath>
</defs>
</svg>
