<svg width="14" height="14" viewBox="0 0 14 14" fill="none" xmlns="http://www.w3.org/2000/svg">
<g clip-path="url(#clip0_0_677)">
<path d="M3.21118 0.583496V1.75016H2.62785C1.98035 1.75016 1.46118 2.26933 1.46118 2.91683V11.0835C1.46118 11.3929 1.5841 11.6897 1.80289 11.9085C2.02168 12.1272 2.31843 12.2502 2.62785 12.2502H7.06118C7.79618 12.9735 8.80535 13.4168 9.91952 13.4168C12.177 13.4168 14.0028 11.591 14.0028 9.3335C14.0028 8.21933 13.5595 7.21016 12.8362 6.47516V2.91683C12.8362 2.60741 12.7133 2.31066 12.4945 2.09187C12.2757 1.87308 11.9789 1.75016 11.6695 1.75016H11.0862V0.583496H9.91952V1.75016H4.37785V0.583496M2.62785 2.91683H11.6695V4.0835H2.62785M2.62785 5.25016H11.6695V5.641C11.1387 5.39016 10.5437 5.25016 9.91952 5.25016C7.66202 5.25016 5.83618 7.076 5.83618 9.3335C5.83618 9.95766 5.97618 10.5527 6.22702 11.0835H2.62785M9.91952 6.50433C11.4828 6.50433 12.7487 7.77016 12.7487 9.3335C12.7487 10.8968 11.4828 12.1627 9.91952 12.1627C8.35618 12.1627 7.09035 10.8968 7.09035 9.3335C7.09035 7.77016 8.35618 6.50433 9.91952 6.50433ZM9.33618 7.5835V9.736L11.197 10.8093L11.6345 10.051L10.2112 9.2285V7.5835H9.33618Z" fill="white"/>
</g>
<defs>
<clipPath id="clip0_0_677">
<rect width="14" height="14" fill="white"/>
</clipPath>
</defs>
</svg>
