<svg width="8" height="10" viewBox="0 0 8 10" fill="none" xmlns="http://www.w3.org/2000/svg">
<path d="M0.800001 0.986389C0.587827 0.986389 0.384344 1.07067 0.234315 1.2207C0.0842857 1.37073 0 1.57422 0 1.78639C0 1.99856 0.0842857 2.20205 0.234315 2.35208C0.384344 2.50211 0.587827 2.58639 0.800001 2.58639H7.20001C7.41218 2.58639 7.61566 2.50211 7.76569 2.35208C7.91572 2.20205 8.00001 1.99856 8.00001 1.78639C8.00001 1.57422 7.91572 1.37073 7.76569 1.2207C7.61566 1.07067 7.41218 0.986389 7.20001 0.986389H0.800001ZM0 4.99999C0 4.78782 0.0842857 4.58434 0.234315 4.43431C0.384344 4.28428 0.587827 4.19999 0.800001 4.19999H7.20001C7.41218 4.19999 7.61566 4.28428 7.76569 4.43431C7.91572 4.58434 8.00001 4.78782 8.00001 4.99999C8.00001 5.21217 7.91572 5.41565 7.76569 5.56568C7.61566 5.71571 7.41218 5.79999 7.20001 5.79999H0.800001C0.587827 5.79999 0.384344 5.71571 0.234315 5.56568C0.0842857 5.41565 0 5.21217 0 4.99999ZM0.800001 7.4136C0.587827 7.4136 0.384344 7.49788 0.234315 7.64791C0.0842857 7.79794 0 8.00142 0 8.2136C0 8.42577 0.0842857 8.62925 0.234315 8.77928C0.384344 8.92931 0.587827 9.0136 0.800001 9.0136H7.20001C7.41218 9.0136 7.61566 8.92931 7.76569 8.77928C7.91572 8.62925 8.00001 8.42577 8.00001 8.2136C8.00001 8.00142 7.91572 7.79794 7.76569 7.64791C7.61566 7.49788 7.41218 7.4136 7.20001 7.4136H0.800001Z" fill="#081E16"/>
</svg>
