<svg width="7" height="7" viewBox="0 0 7 7" fill="none" xmlns="http://www.w3.org/2000/svg">
<path d="M1.16913 0.322369C0.956955 0.322369 0.753471 0.406654 0.603442 0.556684C0.453413 0.706713 0.369128 0.910196 0.369128 1.12237C0.369128 1.33454 0.453413 1.53803 0.603443 1.68806L5.12893 6.21354C5.27896 6.36357 5.48244 6.44786 5.69462 6.44786C5.90679 6.44786 6.11027 6.36357 6.2603 6.21354C6.41033 6.06351 6.49462 5.86003 6.49462 5.64786C6.49462 5.43568 6.41033 5.2322 6.2603 5.08217L1.73481 0.556683C1.58479 0.406654 1.3813 0.322369 1.16913 0.322369Z" fill="white"/>
<path d="M0.369091 5.64783C0.369091 5.86 0.453377 6.06348 0.603406 6.21351C0.753435 6.36354 0.956918 6.44783 1.16909 6.44783C1.38126 6.44783 1.58475 6.36354 1.73478 6.21351L6.26027 1.68802C6.41029 1.538 6.49458 1.33451 6.49458 1.12234C6.49458 0.910165 6.4103 0.706682 6.26027 0.556653C6.11024 0.406624 5.90675 0.322338 5.69458 0.322338C5.48241 0.322338 5.27892 0.406624 5.12889 0.556653L0.603406 5.08214C0.453376 5.23217 0.369091 5.43565 0.369091 5.64783Z" fill="white"/>
</svg>
