<svg width="21" height="21" viewBox="0 0 21 21" fill="none" xmlns="http://www.w3.org/2000/svg">
<path fill-rule="evenodd" clip-rule="evenodd" d="M20.7317 10.8851C20.7317 16.4081 16.2547 20.8852 10.7317 20.8852C5.20869 20.8852 0.731689 16.4081 0.731689 10.8851C0.731689 5.36214 5.20869 0.885132 10.7317 0.885132C16.2547 0.885132 20.7317 5.36214 20.7317 10.8851ZM18.7317 10.8851C18.7317 13.0069 17.8889 15.0417 16.3886 16.542C14.8883 18.0423 12.8534 18.8852 10.7317 18.8852C8.60997 18.8852 6.57513 18.0423 5.07484 16.542C3.57455 15.0417 2.73169 13.0069 2.73169 10.8851C2.73169 8.76341 3.57455 6.72858 5.07484 5.22828C6.57513 3.72799 8.60997 2.88513 10.7317 2.88513C12.8534 2.88513 14.8883 3.72799 16.3886 5.22828C17.8889 6.72858 18.7317 8.76341 18.7317 10.8851Z" fill="#081E16"/>
<path d="M7.90332 7.0567C7.6381 7.0567 7.38375 7.16206 7.19621 7.34959C7.00868 7.53713 6.90332 7.79148 6.90332 8.0567C6.90332 8.32192 7.00868 8.57627 7.19621 8.76381L12.8531 14.4207C13.0406 14.6082 13.295 14.7136 13.5602 14.7136C13.8254 14.7136 14.0798 14.6082 14.2673 14.4207C14.4548 14.2331 14.5602 13.9788 14.5602 13.7136C14.5602 13.4483 14.4548 13.194 14.2673 13.0065L8.61043 7.34959C8.42289 7.16206 8.16854 7.0567 7.90332 7.0567Z" fill="#081E16"/>
<path d="M6.90323 13.7135C6.90323 13.9787 7.00858 14.2331 7.19612 14.4206C7.38366 14.6081 7.63801 14.7135 7.90323 14.7135C8.16845 14.7135 8.4228 14.6081 8.61034 14.4206L14.2672 8.76375C14.4547 8.57621 14.5601 8.32186 14.5601 8.05664C14.5601 7.79142 14.4547 7.53707 14.2672 7.34953C14.0797 7.162 13.8253 7.05664 13.5601 7.05664C13.2949 7.05664 13.0405 7.162 12.853 7.34953L7.19612 13.0064C7.00858 13.1939 6.90323 13.4483 6.90323 13.7135Z" fill="#081E16"/>
</svg>
