<svg width="14" height="14" viewBox="0 0 14 14" fill="none" xmlns="http://www.w3.org/2000/svg">
<path d="M1.53125 1.75H12.4688C13.314 1.75 14 2.436 14 3.28125V10.7188C14 11.1249 13.8387 11.5143 13.5515 11.8015C13.2643 12.0887 12.8749 12.25 12.4688 12.25H1.53125C1.12514 12.25 0.735658 12.0887 0.448493 11.8015C0.161328 11.5143 0 11.1249 0 10.7188L0 3.28125C0 2.436 0.686 1.75 1.53125 1.75ZM1.3125 10.7196C1.3125 10.8404 1.4105 10.9384 1.53125 10.9384H12.4688C12.5268 10.9384 12.5824 10.9153 12.6234 10.8743C12.6645 10.8333 12.6875 10.7776 12.6875 10.7196V5.08288L7.3325 8.22238C7.2317 8.28161 7.11691 8.31284 7 8.31284C6.88309 8.31284 6.7683 8.28161 6.6675 8.22238L1.3125 5.08288V10.7196ZM12.6875 3.56125V3.28125C12.6875 3.22323 12.6645 3.16759 12.6234 3.12657C12.5824 3.08555 12.5268 3.0625 12.4688 3.0625H1.53125C1.47323 3.0625 1.41759 3.08555 1.37657 3.12657C1.33555 3.16759 1.3125 3.22323 1.3125 3.28125V3.56125L7 6.895L12.6875 3.56125Z" fill="white"/>
</svg>
