<svg width="24" height="24" viewBox="0 0 24 24" fill="none" xmlns="http://www.w3.org/2000/svg">
<g clip-path="url(#clip0_0_1009)">
<circle cx="12" cy="12" r="12" fill="#44B4ED"/>
<path d="M17.22 9.84286V14.67C17.22 15.0603 17.0709 15.4358 16.8032 15.7197C16.5355 16.0037 16.1694 16.1746 15.7798 16.1975L15.69 16.2H8.55002C8.15976 16.2 7.78425 16.0509 7.50031 15.7832C7.21637 15.5155 7.04546 15.1494 7.02257 14.7598L7.02002 14.67V9.84286L11.837 13.0543L11.8961 13.088C11.9658 13.1221 12.0424 13.1398 12.12 13.1398C12.1976 13.1398 12.2742 13.1221 12.3439 13.088L12.4031 13.0543L17.22 9.84286Z" fill="white"/>
<path d="M15.6901 8.04001C16.2409 8.04001 16.7239 8.33071 16.9932 8.76778L12.1201 12.0165L7.24707 8.76778C7.37494 8.56009 7.55063 8.38599 7.75947 8.26001C7.96831 8.13403 8.20425 8.05983 8.44761 8.04358L8.55012 8.04001H15.6901Z" fill="white"/>
</g>
<defs>
<clipPath id="clip0_0_1009">
<rect width="24" height="24" fill="white"/>
</clipPath>
</defs>
</svg>
