<svg width="16" height="16" viewBox="0 0 16 16" fill="none" xmlns="http://www.w3.org/2000/svg">
<path d="M8 8.5L1 4.5V3H15V4L8 8.5Z" fill="#DDE6E3"/>
<path d="M1.75 2H14.25C15.216 2 16 2.784 16 3.75V12.25C16 12.7141 15.8156 13.1592 15.4874 13.4874C15.1592 13.8156 14.7141 14 14.25 14H1.75C1.28587 14 0.840752 13.8156 0.512563 13.4874C0.184374 13.1592 0 12.7141 0 12.25L0 3.75C0 2.784 0.784 2 1.75 2ZM1.5 12.251C1.5 12.389 1.612 12.501 1.75 12.501H14.25C14.3163 12.501 14.3799 12.4747 14.4268 12.4278C14.4737 12.3809 14.5 12.3173 14.5 12.251V5.809L8.38 9.397C8.2648 9.4647 8.13362 9.50039 8 9.50039C7.86638 9.50039 7.7352 9.4647 7.62 9.397L1.5 5.809V12.251ZM14.5 4.07V3.75C14.5 3.6837 14.4737 3.62011 14.4268 3.57322C14.3799 3.52634 14.3163 3.5 14.25 3.5H1.75C1.6837 3.5 1.62011 3.52634 1.57322 3.57322C1.52634 3.62011 1.5 3.6837 1.5 3.75V4.07L8 7.88L14.5 4.07Z" fill="#40B661"/>
</svg>
