<svg width="14" height="12" viewBox="0 0 14 12" fill="none" xmlns="http://www.w3.org/2000/svg">
<g clip-path="url(#clip0_2025_13)">
<path d="M1.53125 0.75H12.4688C13.314 0.75 14 1.436 14 2.28125V9.71875C14 10.1249 13.8387 10.5143 13.5515 10.8015C13.2643 11.0887 12.8749 11.25 12.4688 11.25H1.53125C1.12514 11.25 0.735658 11.0887 0.448493 10.8015C0.161328 10.5143 0 10.1249 0 9.71875V2.28125C0 1.436 0.686 0.75 1.53125 0.75ZM1.3125 9.71963C1.3125 9.84038 1.4105 9.93838 1.53125 9.93838H12.4688C12.5268 9.93838 12.5824 9.91533 12.6234 9.8743C12.6645 9.83328 12.6875 9.77764 12.6875 9.71963V4.08288L7.3325 7.22238C7.2317 7.28161 7.11691 7.31284 7 7.31284C6.88309 7.31284 6.7683 7.28161 6.6675 7.22238L1.3125 4.08288V9.71963ZM12.6875 2.56125V2.28125C12.6875 2.22323 12.6645 2.16759 12.6234 2.12657C12.5824 2.08555 12.5268 2.0625 12.4688 2.0625H1.53125C1.47323 2.0625 1.41759 2.08555 1.37657 2.12657C1.33555 2.16759 1.3125 2.22323 1.3125 2.28125V2.56125L7 5.895L12.6875 2.56125Z" fill="#081E16" fill-opacity="0.2"/>
</g>
<defs>
<clipPath id="clip0_2025_13">
<rect width="14" height="12" fill="white"/>
</clipPath>
</defs>
</svg>
