<svg width="24" height="24" viewBox="0 0 24 24" fill="none" xmlns="http://www.w3.org/2000/svg">
<circle cx="12" cy="12" r="12" fill="#F79A38"/>
<path d="M15.7424 13.6757C16.0572 13.3609 16.1022 12.9111 15.8323 12.4613C15.6075 12.1015 15.2027 11.9216 14.7529 12.0116C14.573 12.0565 14.3931 12.1465 14.2132 12.2814C12.8189 13.2259 10.9299 13.181 9.53562 12.2364C9.44567 12.1915 9.35571 12.1465 9.26576 12.1015C8.77101 11.8766 8.27628 11.9666 8.00642 12.4164C7.69158 12.8661 7.73655 13.3609 8.14134 13.7657C8.2313 13.8556 8.32125 13.9006 8.36623 13.9905L8.4112 14.0355C9.04088 14.5303 9.80548 14.8451 10.795 14.98L10.2103 15.5647C9.71553 16.0595 9.17581 16.5992 8.68107 17.0939C8.54614 17.2289 8.36623 17.4537 8.36623 17.7686C8.36623 18.1734 8.59111 18.5781 8.9959 18.7581C9.13083 18.848 9.26576 18.848 9.40069 18.848C9.62557 18.848 9.89543 18.7581 10.0753 18.5332C10.75 17.8585 11.2897 17.3188 11.8294 16.7791C11.8744 16.7341 11.8744 16.7341 11.8744 16.7341C11.8744 16.7341 11.9194 16.7341 11.9194 16.7791C12.2792 17.1839 12.684 17.5437 13.0438 17.9485C13.2237 18.1284 13.4036 18.3083 13.5835 18.4882C13.8084 18.7131 13.9883 18.803 14.2582 18.803C14.663 18.848 15.1127 18.5781 15.2926 18.1734C15.4725 17.8135 15.3826 17.3638 15.0677 17.0939C14.618 16.6442 14.1682 16.1494 13.6735 15.6996L12.9089 14.935C13.3137 14.8901 13.7634 14.8001 14.1682 14.6202C14.8429 14.3953 15.3376 14.0805 15.7424 13.6757Z" fill="white"/>
<path d="M11.8744 12.4164C13.8084 12.4164 15.3826 10.8871 15.3826 8.95315C15.3826 8.00864 15.0228 7.10911 14.3481 6.43446C13.6735 5.75981 12.8189 5.4 11.9194 5.4C9.98539 5.4 8.45618 6.97418 8.4112 8.86319C8.4112 9.8077 8.77102 10.6623 9.44567 11.3369C10.0753 12.0565 10.9299 12.4164 11.8744 12.4164ZM10.8849 7.91869C11.1548 7.64883 11.5146 7.5139 11.8744 7.5139C12.684 7.5139 13.2687 8.14357 13.2687 8.90817C13.2687 9.71775 12.639 10.3024 11.8744 10.3024C11.0648 10.3024 10.4801 9.67278 10.4801 8.90817C10.4801 8.54836 10.6151 8.18855 10.8849 7.91869Z" fill="white"/>
<path d="M15.7424 13.6757C16.0572 13.3609 16.1022 12.9111 15.8323 12.4613C15.6075 12.1015 15.2027 11.9216 14.7529 12.0116C14.573 12.0565 14.3931 12.1465 14.2132 12.2814C12.8189 13.2259 10.9299 13.181 9.53562 12.2364C9.44567 12.1915 9.35571 12.1465 9.26576 12.1015C8.77101 11.8766 8.27628 11.9666 8.00642 12.4164C7.69158 12.8661 7.73655 13.3609 8.14134 13.7657C8.2313 13.8556 8.32125 13.9006 8.36623 13.9905L8.4112 14.0355C9.04088 14.5303 9.80548 14.8451 10.795 14.98L10.2103 15.5647C9.71553 16.0595 9.17581 16.5992 8.68107 17.0939C8.54614 17.2289 8.36623 17.4537 8.36623 17.7686C8.36623 18.1734 8.59111 18.5781 8.9959 18.7581C9.13083 18.848 9.26576 18.848 9.40069 18.848C9.62557 18.848 9.89543 18.7581 10.0753 18.5332C10.75 17.8585 11.2897 17.3188 11.8294 16.7791C11.8744 16.7341 11.8744 16.7341 11.8744 16.7341C11.8744 16.7341 11.9194 16.7341 11.9194 16.7791C12.2792 17.1839 12.684 17.5437 13.0438 17.9485C13.2237 18.1284 13.4036 18.3083 13.5835 18.4882C13.8084 18.7131 13.9883 18.803 14.2582 18.803C14.663 18.848 15.1127 18.5781 15.2926 18.1734C15.4725 17.8135 15.3826 17.3638 15.0677 17.0939C14.618 16.6442 14.1682 16.1494 13.6735 15.6996L12.9089 14.935C13.3137 14.8901 13.7634 14.8001 14.1682 14.6202C14.8429 14.3953 15.3376 14.0805 15.7424 13.6757Z" fill="white"/>
</svg>
