<svg width="15" height="15" viewBox="0 0 15 15" fill="none" xmlns="http://www.w3.org/2000/svg">
<g opacity="0.2" clip-path="url(#clip0_0_1103)">
<path fill-rule="evenodd" clip-rule="evenodd" d="M5.15459 10.4638C7.85064 13.1593 10.349 13.4544 11.0824 13.4818C11.9687 13.514 12.8732 12.7905 13.2645 12.0495C12.6404 11.3176 11.8278 10.7498 10.938 10.1343C10.4128 10.6587 9.76558 11.6331 8.90382 11.284C8.41369 11.087 7.20345 10.5297 6.14606 9.4718C5.08867 8.41393 4.53123 7.20463 4.3328 6.71531C3.98361 5.85232 4.96106 5.20386 5.48625 4.67878C4.87061 3.77444 4.31246 2.9409 3.58183 2.34852C2.83016 2.7411 2.10233 3.63843 2.13528 4.53647C2.16263 5.26976 2.45783 7.76757 5.15459 10.4638ZM11.0305 14.8831C10.0208 14.846 7.15927 14.4506 4.16241 11.455C1.16624 8.4588 0.771476 5.59855 0.733612 4.58835C0.677517 3.04886 1.85691 1.55354 3.21931 0.969568C3.38337 0.89874 3.56304 0.871773 3.74067 0.891315C3.9183 0.910856 4.08779 0.976234 4.23253 1.08103C5.36003 1.90336 6.13765 3.14911 6.80588 4.12496C6.94489 4.32787 7.00857 4.57299 6.9859 4.8179C6.96324 5.0628 6.85566 5.29208 6.68177 5.46605L5.73096 6.41736C5.95183 6.90459 6.40129 7.74443 7.13754 8.48053C7.87378 9.21662 8.7138 9.66599 9.20183 9.88682L10.1519 8.9362C10.3264 8.76162 10.5567 8.65394 10.8026 8.63203C11.0485 8.61011 11.2942 8.67535 11.4968 8.81633C12.4925 9.50615 13.6621 10.2724 14.5147 11.3639C14.628 11.5097 14.7001 11.6832 14.7234 11.8663C14.7468 12.0494 14.7204 12.2355 14.6472 12.405C14.0603 13.7741 12.5752 14.9399 11.0305 14.8831Z" fill="#081E16"/>
</g>
<defs>
<clipPath id="clip0_0_1103">
<rect width="14" height="14" fill="white" transform="translate(0.731689 0.885132)"/>
</clipPath>
</defs>
</svg>
