<svg width="14" height="14" viewBox="0 0 14 14" fill="none" xmlns="http://www.w3.org/2000/svg">
<g clip-path="url(#clip0_0_667)">
<path fill-rule="evenodd" clip-rule="evenodd" d="M2.80071 2.14224C2.62607 2.14224 2.45859 2.21162 2.3351 2.3351C2.21547 2.45474 2.14662 2.61566 2.14244 2.78439C2.2911 5.14175 3.2946 7.36425 4.96518 9.03482C6.63576 10.7054 8.85825 11.7089 11.2156 11.8576C11.3843 11.8534 11.5453 11.7845 11.6649 11.6649C11.7884 11.5414 11.8578 11.3739 11.8578 11.1993V9.04409L9.52685 8.11173L8.83541 9.26413C8.66576 9.54689 8.30758 9.65226 8.01183 9.5064C6.48384 8.75283 5.24717 7.51616 4.4936 5.98817C4.34774 5.69242 4.45311 5.33424 4.73587 5.16459L5.88827 4.47315L4.95591 2.14224H2.80071ZM1.43903 1.43903C1.80017 1.07789 2.28998 0.875 2.80071 0.875H5.38489C5.64398 0.875 5.87697 1.03274 5.97319 1.2733L7.26528 4.50352C7.38078 4.79227 7.26965 5.12216 7.00297 5.28217L5.91075 5.9375C6.44676 6.81548 7.18452 7.55324 8.0625 8.08925L8.71783 6.99703C8.87784 6.73035 9.20773 6.61922 9.49648 6.73472L12.7267 8.02681C12.9673 8.12303 13.125 8.35602 13.125 8.61511V11.1993C13.125 11.71 12.9221 12.1998 12.561 12.561C12.1998 12.9221 11.71 13.125 11.1993 13.125C11.1865 13.125 11.1737 13.1246 11.1609 13.1238C8.48633 12.9613 5.96377 11.8256 4.0691 9.9309C2.17444 8.03624 1.0387 5.51367 0.876167 2.83914C0.875389 2.82635 0.875 2.81353 0.875 2.80071C0.875 2.28998 1.07789 1.80017 1.43903 1.43903Z" fill="white"/>
</g>
<defs>
<clipPath id="clip0_0_667">
<rect width="14" height="14" fill="white"/>
</clipPath>
</defs>
</svg>
