<svg width="16" height="16" viewBox="0 0 16 16" fill="none" xmlns="http://www.w3.org/2000/svg">
<path fill-rule="evenodd" clip-rule="evenodd" d="M6.67203 1.50471e-08C5.60802 9.06589e-05 4.55946 0.25462 3.61383 0.742353C2.6682 1.23009 1.85292 1.93688 1.23601 2.80376C0.619105 3.67065 0.218458 4.67249 0.0674994 5.7257C-0.0834596 6.7789 0.0196459 7.85294 0.368214 8.8582C0.716782 9.86346 1.3007 10.7708 2.07127 11.5045C2.84183 12.2382 3.77668 12.777 4.79783 13.0759C5.81898 13.3749 6.89682 13.4253 7.94141 13.223C8.98601 13.0206 9.96708 12.5715 10.8028 11.9129L13.6696 14.7796C13.8177 14.9226 14.016 15.0018 14.2218 15C14.4276 14.9982 14.6245 14.9156 14.7701 14.7701C14.9156 14.6245 14.9982 14.4277 15 14.2218C15.0018 14.016 14.9226 13.8177 14.7796 13.6697L11.9128 10.8029C12.6884 9.81904 13.1713 8.63669 13.3062 7.39118C13.4412 6.14567 13.2228 4.88732 12.676 3.76014C12.1292 2.63296 11.276 1.6825 10.2142 1.01752C9.15245 0.352541 7.92489 -8.41056e-05 6.67203 1.50471e-08ZM1.56946 6.67235C1.56946 5.31911 2.10705 4.0213 3.06397 3.06442C4.02089 2.10754 5.31875 1.56996 6.67203 1.56996C8.02532 1.56996 9.32318 2.10754 10.2801 3.06442C11.237 4.0213 11.7746 5.31911 11.7746 6.67235C11.7746 8.02559 11.237 9.3234 10.2801 10.2803C9.32318 11.2372 8.02532 11.7747 6.67203 11.7747C5.31875 11.7747 4.02089 11.2372 3.06397 10.2803C2.10705 9.3234 1.56946 8.02559 1.56946 6.67235Z" fill="white"/>
</svg>
