<svg width="16" height="16" viewBox="0 0 16 16" fill="none" xmlns="http://www.w3.org/2000/svg">
<path d="M11.824 3.88242C11.9376 3.99325 12 4.14446 12 4.302V6.28117C12 6.43864 11.9368 6.58966 11.8243 6.70101C11.7117 6.81236 11.5591 6.87492 11.4 6.87492C11.2409 6.87492 11.0883 6.81236 10.9757 6.70101C10.8632 6.58966 10.8 6.43864 10.8 6.28117V5.73492L9.424 7.09659C9.36862 7.15327 9.3024 7.19847 9.22918 7.22955C9.15596 7.26064 9.07722 7.27698 8.99756 7.27763C8.91789 7.27827 8.83889 7.26321 8.76516 7.23333C8.69144 7.20344 8.62447 7.15932 8.56816 7.10354C8.51185 7.04777 8.46733 6.98145 8.4372 6.90847C8.40707 6.83549 8.39192 6.7573 8.39265 6.67846C8.39338 6.59962 8.40997 6.52172 8.44145 6.44929C8.47293 6.37687 8.51867 6.31137 8.576 6.25663L9.952 4.89575H9.4C9.24087 4.89575 9.08826 4.8332 8.97574 4.72185C8.86321 4.6105 8.8 4.45947 8.8 4.302C8.8 4.14453 8.86321 3.99351 8.97574 3.88216C9.08826 3.77081 9.24087 3.70825 9.4 3.70825H11.4C11.5591 3.70839 11.7116 3.77104 11.824 3.88242ZM4 11.0312C4 11.1886 4.06321 11.3397 4.17574 11.451C4.28826 11.5624 4.44087 11.6249 4.6 11.6249H6.6008C6.75993 11.6249 6.91254 11.5624 7.02506 11.451C7.13759 11.3397 7.2008 11.1886 7.2008 11.0312C7.2008 10.8737 7.13759 10.7227 7.02506 10.6113C6.91254 10.5 6.75993 10.4374 6.6008 10.4374H6.0488L7.4248 9.07575C7.53404 8.96372 7.59445 8.81371 7.59301 8.65803C7.59157 8.50235 7.5284 8.35346 7.4171 8.24342C7.3058 8.13339 7.15528 8.07101 6.99796 8.06974C6.84064 8.06846 6.68911 8.12838 6.576 8.23659L5.2 9.59667V9.05042C5.2 8.89295 5.13679 8.74192 5.02426 8.63057C4.91174 8.51922 4.75913 8.45667 4.6 8.45667C4.44087 8.45667 4.28826 8.51922 4.17574 8.63057C4.06321 8.74192 4 8.89295 4 9.05042V11.0312ZM0 3.51034C0 2.93294 0.231785 2.37919 0.644365 1.9709C1.05695 1.56262 1.61652 1.33325 2.2 1.33325H13.8C14.3835 1.33325 14.9431 1.56262 15.3556 1.9709C15.7682 2.37919 16 2.93294 16 3.51034V11.8228C16 12.1087 15.9431 12.3918 15.8325 12.656C15.722 12.9201 15.5599 13.1601 15.3556 13.3623C15.1513 13.5644 14.9088 13.7248 14.6419 13.8342C14.375 13.9436 14.0889 13.9999 13.8 13.9999H2.2C1.91109 13.9999 1.62501 13.9436 1.3581 13.8342C1.09118 13.7248 0.848654 13.5644 0.644365 13.3623C0.440076 13.1601 0.278025 12.9201 0.167465 12.656C0.0569047 12.3918 0 12.1087 0 11.8228V3.51034ZM2.2 2.52075C1.648 2.52075 1.2 2.96409 1.2 3.51034V11.8228C1.2 12.3691 1.648 12.8124 2.2 12.8124H13.8C14.352 12.8124 14.8 12.3691 14.8 11.8228V3.51034C14.8 2.96409 14.352 2.52075 13.8 2.52075H2.2Z" fill="#40B661"/>
</svg>
