<svg width="24" height="24" viewBox="0 0 24 24" fill="none" xmlns="http://www.w3.org/2000/svg">
<circle cx="12" cy="12" r="12" fill="#2F89CE"/>
<path d="M5.02075 12.3839L7.91755 13.4453L9.0468 17.0154C9.0959 17.2566 9.39049 17.3048 9.58688 17.1601L11.2071 15.8575C11.3544 15.7128 11.5999 15.7128 11.7963 15.8575L14.6931 17.932C14.8895 18.0767 15.1841 17.9802 15.2332 17.739L17.3935 7.60774C17.4426 7.36652 17.1971 7.1253 16.9516 7.22179L5.02075 11.7567C4.72616 11.8532 4.72616 12.2874 5.02075 12.3839ZM8.89951 12.9146L14.5949 9.48927C14.6931 9.44102 14.7913 9.58576 14.6931 9.634L10.0288 13.9277C9.88147 14.0725 9.73417 14.2654 9.73417 14.5067L9.58688 15.6645C9.58688 15.8093 9.34139 15.8575 9.29229 15.6645L8.70311 13.5418C8.55581 13.3006 8.65402 13.0111 8.89951 12.9146Z" fill="white"/>
</svg>
