<svg width="13" height="15" viewBox="0 0 13 15" fill="none" xmlns="http://www.w3.org/2000/svg">
<path fill-rule="evenodd" clip-rule="evenodd" d="M9.23169 4.88498C9.23169 5.54803 8.9683 6.18393 8.49946 6.65278C8.03062 7.12162 7.39473 7.38502 6.73169 7.38502C6.06865 7.38502 5.43276 7.12162 4.96392 6.65278C4.49508 6.18393 4.23169 5.54803 4.23169 4.88498C4.23169 4.22193 4.49508 3.58604 4.96392 3.11719C5.43276 2.64834 6.06865 2.38495 6.73169 2.38495C7.39473 2.38495 8.03062 2.64834 8.49946 3.11719C8.9683 3.58604 9.23169 4.22193 9.23169 4.88498ZM9.74569 7.51502C10.2506 6.93634 10.5782 6.22453 10.6895 5.46464C10.8007 4.70474 10.6909 3.92889 10.3731 3.22975C10.0552 2.53061 9.54285 1.93775 8.89714 1.52198C8.25142 1.10622 7.49967 0.885132 6.73169 0.885132C5.96371 0.885132 5.21196 1.10622 4.56624 1.52198C3.92053 1.93775 3.40815 2.53061 3.09032 3.22975C2.77248 3.92889 2.66263 4.70474 2.77388 5.46464C2.88513 6.22453 3.21278 6.93634 3.71769 7.51502C2.86216 7.73923 2.10506 8.24065 1.56479 8.94088C1.02452 9.64111 0.731544 10.5006 0.73169 11.3851V12.8851C0.73169 13.4155 0.942403 13.9243 1.31748 14.2993C1.69255 14.6744 2.20126 14.8851 2.73169 14.8851H10.7317C11.2621 14.8851 11.7708 14.6744 12.1459 14.2993C12.521 13.9243 12.7317 13.4155 12.7317 12.8851V11.3851C12.7318 10.5006 12.4389 9.64111 11.8986 8.94088C11.3583 8.24065 10.6012 7.73923 9.74569 7.51502ZM6.73169 8.88504H4.73169C4.06865 8.88504 3.43276 9.14844 2.96392 9.61729C2.49508 10.0861 2.23169 10.722 2.23169 11.3851V12.8851C2.23169 13.0177 2.28437 13.1449 2.37814 13.2387C2.4719 13.3324 2.59908 13.3851 2.73169 13.3851H10.7317C10.8643 13.3851 10.9915 13.3324 11.0852 13.2387C11.179 13.1449 11.2317 13.0177 11.2317 12.8851V11.3851C11.2317 10.722 10.9683 10.0861 10.4995 9.61729C10.0306 9.14844 9.39473 8.88504 8.73169 8.88504H6.73169Z" fill="white"/>
</svg>
