<svg width="24" height="24" viewBox="0 0 24 24" fill="none" xmlns="http://www.w3.org/2000/svg">
<circle cx="12" cy="12" r="12" fill="#4A76A8"/>
<path d="M17.8772 15.9986C17.8772 15.9452 17.8247 15.9452 17.8247 15.8918C17.6146 15.4644 17.1419 14.9301 16.5117 14.3425C16.1966 14.0754 16.039 13.8617 15.934 13.7548C15.7764 13.5411 15.7764 13.3808 15.8289 13.1671C15.8815 13.0069 16.0915 12.7397 16.4592 12.2589C16.6692 11.9918 16.7743 11.8315 16.9318 11.6712C17.7196 10.6027 18.0873 9.90822 17.9822 9.58767L17.9297 9.53425C17.8772 9.48083 17.8247 9.42741 17.7196 9.42741C17.6146 9.37398 17.457 9.37398 17.2995 9.42741H15.3037C15.2512 9.42741 15.2512 9.42741 15.1462 9.42741C15.0936 9.42741 15.0411 9.42741 15.0411 9.42741H14.9886H14.9361L14.8836 9.48083C14.8311 9.53425 14.831 9.53425 14.831 9.58767C14.621 10.1753 14.3584 10.6562 14.0958 11.1904C13.9382 11.4575 13.7807 11.7247 13.6231 11.9384C13.4655 12.1521 13.3605 12.3123 13.2555 12.4192C13.1504 12.526 13.0454 12.5795 12.9929 12.6863C12.9403 12.7397 12.8353 12.7932 12.8353 12.7397C12.7828 12.7397 12.7303 12.7397 12.7303 12.6863C12.6777 12.6329 12.6252 12.5795 12.5727 12.526C12.5202 12.4726 12.5202 12.3658 12.4677 12.2589C12.4677 12.1521 12.4677 12.0452 12.4677 11.9918C12.4677 11.9384 12.4677 11.7781 12.4677 11.6712C12.4677 11.511 12.4677 11.4041 12.4677 11.3507C12.4677 11.1904 12.4677 10.9767 12.4677 10.763C12.4677 10.5493 12.4677 10.389 12.4677 10.2822C12.4677 10.1753 12.4677 10.0151 12.4677 9.90823C12.4677 9.74795 12.4677 9.6411 12.4677 9.58767C12.4677 9.53425 12.4152 9.4274 12.4152 9.37398C12.3626 9.32055 12.3101 9.26713 12.2576 9.2137C12.2051 9.16028 12.1 9.16028 12.0475 9.10686C11.7849 9.05343 11.4698 9.00001 11.1022 9.00001C10.2619 9.00001 9.68413 9.05343 9.47406 9.16028C9.36902 9.21371 9.26398 9.26713 9.21146 9.37398C9.10642 9.48083 9.10642 9.53425 9.15893 9.53425C9.42153 9.58768 9.63161 9.69452 9.73665 9.8548L9.78918 9.96165C9.8417 10.0151 9.84169 10.1219 9.89421 10.2822C9.94673 10.4425 9.94673 10.6027 9.94673 10.8164C9.94673 11.137 9.94673 11.4575 9.94673 11.6712C9.94673 11.9384 9.89421 12.0986 9.89421 12.2589C9.89421 12.4192 9.8417 12.526 9.78918 12.5795C9.73666 12.6863 9.73665 12.7397 9.68413 12.7397C9.68413 12.7397 9.68413 12.7932 9.63161 12.7932C9.57909 12.7932 9.52657 12.8466 9.42153 12.8466C9.36901 12.8466 9.26398 12.7932 9.21146 12.7397C9.10642 12.6863 9.00138 12.5795 8.94886 12.4726C8.84382 12.3658 8.73878 12.2055 8.63374 11.9918C8.5287 11.7781 8.37113 11.5644 8.26609 11.2438L8.16107 11.0301C8.10855 10.9233 8.00351 10.7096 7.89847 10.4425C7.79343 10.1753 7.68839 9.96165 7.58335 9.69453C7.53083 9.58768 7.47831 9.53425 7.42579 9.48083H7.37327C7.37327 9.48083 7.32074 9.42741 7.26823 9.42741C7.21571 9.42741 7.16319 9.37398 7.11067 9.37398H5.21996C5.00988 9.37398 4.90485 9.4274 4.85233 9.48083L4.7998 9.53425C4.7998 9.53425 4.7998 9.58768 4.7998 9.6411C4.7998 9.69453 4.79981 9.74795 4.85233 9.8548C5.11493 10.4959 5.43004 11.137 5.74516 11.7781C6.06028 12.3658 6.3754 12.9 6.58548 13.274C6.84807 13.648 7.05815 14.0219 7.32075 14.3425C7.58335 14.663 7.7409 14.8767 7.79342 14.9836C7.89846 15.0904 7.95098 15.1438 8.0035 15.1973L8.16107 15.3575C8.2661 15.4644 8.42366 15.6247 8.63374 15.7849C8.84382 15.9452 9.10641 16.1055 9.36901 16.2658C9.63161 16.426 9.94673 16.5329 10.2618 16.6397C10.6295 16.7466 10.9446 16.8 11.2597 16.7466H12.0475C12.2051 16.7466 12.3101 16.6932 12.4152 16.5863L12.4677 16.5329C12.4677 16.4795 12.5202 16.4795 12.5202 16.426C12.5202 16.3726 12.5202 16.3192 12.5202 16.2123C12.5202 15.9986 12.5202 15.8384 12.5727 15.6781C12.6252 15.5178 12.6252 15.411 12.6778 15.3041C12.7303 15.1973 12.7828 15.1438 12.8353 15.0904C12.8878 15.037 12.9404 14.9836 12.9404 14.9836H12.9929C13.0979 14.9301 13.2555 14.9836 13.3605 15.0904C13.5181 15.1973 13.6756 15.3575 13.7807 15.5178C13.8857 15.6781 14.0433 15.8384 14.2533 16.0521C14.4634 16.2658 14.621 16.426 14.726 16.4795L14.8836 16.5863C14.9886 16.6397 15.0937 16.6932 15.2512 16.7466C15.4088 16.8 15.5138 16.8 15.6188 16.8L17.4045 16.7466C17.5621 16.7466 17.7196 16.6932 17.8247 16.6397C17.9297 16.5863 17.9822 16.5329 17.9822 16.426C17.9822 16.3726 17.9822 16.2658 17.9822 16.2123C17.8772 16.1055 17.8772 16.0521 17.8772 15.9986Z" fill="white"/>
</svg>
