<svg width="24" height="24" viewBox="0 0 24 24" fill="none" xmlns="http://www.w3.org/2000/svg">
<circle cx="12" cy="12" r="12" fill="#48C95F"/>
<path d="M16.7561 7.83751C15.5707 6.65626 13.9902 6.00001 12.3219 6.00001C8.85366 6.00001 6.0439 8.80001 6.0439 12.2563C6.0439 13.35 6.35122 14.4438 6.87805 15.3625L6 18.6L9.33659 17.725C10.2585 18.2063 11.2683 18.4688 12.3219 18.4688C15.7902 18.4688 18.6 15.6688 18.6 12.2125C18.5561 10.5938 17.9415 9.01876 16.7561 7.83751ZM15.3512 14.4875C15.2195 14.8375 14.6049 15.1875 14.2976 15.2313C14.0341 15.275 13.6829 15.275 13.3317 15.1875C13.1122 15.1 12.8049 15.0125 12.4537 14.8375C10.8732 14.1813 9.86342 12.6063 9.77561 12.475C9.68781 12.3875 9.11707 11.6438 9.11707 10.8563C9.11707 10.0688 9.51219 9.71876 9.6439 9.54376C9.77561 9.36876 9.95122 9.36876 10.0829 9.36876C10.1707 9.36876 10.3024 9.36876 10.3902 9.36876C10.478 9.36876 10.6098 9.32501 10.7415 9.63126C10.8732 9.93751 11.1805 10.725 11.2244 10.7688C11.2683 10.8563 11.2683 10.9438 11.2244 11.0313C11.1805 11.1188 11.1366 11.2063 11.0488 11.2938C10.961 11.3813 10.8732 11.5125 10.8293 11.5563C10.7415 11.6438 10.6537 11.7313 10.7415 11.8625C10.8293 12.0375 11.1366 12.5188 11.6195 12.9563C12.2341 13.4813 12.7171 13.6563 12.8927 13.7438C13.0683 13.8313 13.1561 13.7875 13.2439 13.7C13.3317 13.6125 13.639 13.2625 13.7268 13.0875C13.8146 12.9125 13.9463 12.9563 14.078 13C14.2098 13.0438 15 13.4375 15.1317 13.525C15.3073 13.6125 15.3951 13.6563 15.439 13.7C15.4829 13.8313 15.4829 14.1375 15.3512 14.4875Z" fill="white"/>
</svg>
