<svg width="20" height="20" viewBox="0 0 20 20" fill="none" xmlns="http://www.w3.org/2000/svg">
<path d="M2 1.25C0.895431 1.25 0 2.14543 0 3.25V16.75C0 17.8546 0.895431 18.75 2 18.75H18C19.1046 18.75 20 17.8546 20 16.75V3.25C20 2.14543 19.1046 1.25 18 1.25H2ZM1.66667 3H18.3333V17H1.66667V3ZM10 4.75C6.39 4.75 3.6975 6.6365 3.6975 6.6365L3.0475 7.10113L3.46417 7.8125L5.96417 12.1875L6.1975 12.625H13.8025L14.0358 12.1875L16.5358 7.8125L16.9525 7.10113L16.3025 6.63737C16.3025 6.63737 13.6092 4.75 10 4.75ZM10 6.5C12.3533 6.5 13.9067 7.29275 14.6617 7.73025L12.8908 10.875H11.3542L12.4217 8.63237L10.9117 7.86762L9.47917 10.875H7.10917L5.33833 7.73025C6.09333 7.29275 7.64667 6.5 10 6.5Z" fill="#40B661"/>
</svg>
